<?xml version="1.0" encoding="utf-8"?>
<!-- Generator: Adobe Illustrator 24.0.2, SVG Export Plug-In . SVG Version: 6.00 Build 0)  -->
<svg version="1.1" id="Layer_1" xmlns="http://www.w3.org/2000/svg" xmlns:xlink="http://www.w3.org/1999/xlink" x="0px" y="0px"
	 viewBox="0 0 50 50" style="enable-background:new 0 0 50 50;" xml:space="preserve">
<style type="text/css">
	.st0{fill:#FFFFFF;}
</style>
<g>
	<path class="st0" d="M14.5,30.5H7.7c0,0-0.1,0-0.1,0s-0.1,0-0.1,0s-0.1,0-0.1,0c-0.6,0.1-0.9,0.6-0.9,1.1c0.1,0.6,0.6,0.9,1.1,0.9
		h6.8c0.4,0,0.7-0.2,0.9-0.5c0.2-0.3,0.2-0.7,0-1C15.2,30.7,14.8,30.5,14.5,30.5z"/>
	<path class="st0" d="M14.5,26.5H7.7c0,0-0.1,0-0.1,0s-0.1,0-0.1,0s-0.1,0-0.1,0c-0.6,0.1-0.9,0.6-0.9,1.1s0.6,0.9,1.1,0.9h6.8
		c0.4,0,0.7-0.2,0.9-0.5c0.2-0.3,0.2-0.7,0-1C15.2,26.7,14.8,26.5,14.5,26.5z"/>
	<path class="st0" d="M14.5,22.5H7.7c0,0-0.1,0-0.1,0s-0.1,0-0.1,0s-0.1,0-0.1,0c-0.6,0.1-0.9,0.6-0.9,1.1s0.6,0.9,1.1,0.9h6.8
		c0.4,0,0.7-0.2,0.9-0.5c0.2-0.3,0.2-0.7,0-1C15.2,22.7,14.8,22.5,14.5,22.5z"/>
	<path class="st0" d="M14.5,38.5H7.7c0,0-0.1,0-0.1,0s-0.1,0-0.1,0s-0.1,0-0.1,0c-0.6,0.1-0.9,0.6-0.9,1.1s0.6,0.9,1.1,0.9h6.8
		c0.4,0,0.7-0.2,0.9-0.5c0.2-0.3,0.2-0.7,0-1C15.2,38.7,14.8,38.5,14.5,38.5z"/>
	<path class="st0" d="M14.5,34.5H7.7c0,0-0.1,0-0.1,0s-0.1,0-0.1,0s-0.1,0-0.1,0c-0.6,0.1-0.9,0.6-0.9,1.1s0.6,0.9,1.1,0.9h6.8
		c0.4,0,0.7-0.2,0.9-0.5c0.2-0.3,0.2-0.7,0-1C15.2,34.7,14.8,34.5,14.5,34.5z"/>
	<path class="st0" d="M26.9,38h-7.7c0,0-0.1,0-0.1,0s-0.1,0-0.1,0s-0.1,0-0.1,0c-0.6,0.1-0.9,0.6-0.9,1.1s0.6,0.9,1.1,0.9h7.7
		c0.4,0,0.7-0.2,0.9-0.5c0.2-0.3,0.2-0.7,0-1C27.6,38.2,27.3,38,26.9,38z"/>
	<path class="st0" d="M48.5,11.5c-0.6-1.2-2-2.5-4.2-2.5v0h-9.5V3.3c0-0.6-0.4-1-1-1H1.9c-0.1,0-0.1,0-0.2,0c-0.5,0.1-0.8,0.5-0.8,1
		V39c0,4.2,2.2,6.6,4.4,7.7s4.3,1,4.3,1h30.8v-0.1c0.5,0.1,1,0.1,1,0.1s1.9,0,3.8-1.1c1.9-1.1,3.7-3.4,3.8-7.3c0,0,0,0,0-0.1
		c0,0,0,0,0-0.1c0-0.1,0-0.1,0-0.2V13.9c0,0,0,0,0,0C49.1,13.9,49.1,12.7,48.5,11.5z M9.6,45.7C9.6,45.7,9.6,45.7,9.6,45.7
		c0,0-0.5,0-1.1-0.1c-0.3-0.1-0.7-0.1-1.1-0.2s-0.8-0.3-1.2-0.5c-0.2-0.1-0.4-0.2-0.6-0.3c-1.4-0.9-2.7-2.4-2.7-5.6V4.3h29.8V39
		c0,3.3,1.4,5.4,3,6.8H9.6z M47.1,13.9V39c0,3.6-1.4,5.1-2.8,5.9s-2.8,0.8-2.8,0.8s-1.7,0-3.4-0.9s-3.3-2.3-3.3-5.9V11h5.6
		c-0.1,0.2-0.2,0.3-0.3,0.5c-0.6,1.2-0.6,2.4-0.6,2.4v24.2c0,0.4,0.2,0.7,0.5,0.9c0.3,0.2,0.7,0.2,1,0c0.3-0.2,0.5-0.5,0.5-0.9V13.9
		c0,0,0-0.8,0.4-1.5c0.4-0.7,0.9-1.4,2.4-1.4c1.5,0,2.1,0.7,2.4,1.4C47,13.2,47.1,13.9,47.1,13.9L47.1,13.9z"/>
	<path class="st0" d="M26.9,34.3h-7.7c-0.1,0-0.1,0-0.2,0c0,0-0.1,0-0.1,0c-0.6,0.1-0.9,0.6-0.9,1.1s0.6,0.9,1.1,0.9h7.7
		c0.4,0,0.7-0.2,0.9-0.5c0.2-0.3,0.2-0.7,0-1C27.6,34.5,27.3,34.3,26.9,34.3z"/>
	<path class="st0" d="M26.9,14.5H7.2c0,0-0.1,0-0.1,0s-0.1,0-0.1,0s-0.1,0-0.1,0c-0.6,0.1-0.9,0.6-0.9,1.1c0.1,0.6,0.6,0.9,1.1,0.9
		h19.7c0.4,0,0.7-0.2,0.9-0.5c0.2-0.3,0.2-0.7,0-1C27.6,14.7,27.3,14.5,26.9,14.5z"/>
	<path class="st0" d="M26.9,10.5H7.2c0,0-0.1,0-0.1,0s-0.1,0-0.1,0s-0.1,0-0.1,0c-0.6,0.1-0.9,0.6-0.9,1.1s0.6,0.9,1.1,0.9h19.7
		c0.4,0,0.7-0.2,0.9-0.5c0.2-0.3,0.2-0.7,0-1C27.6,10.7,27.3,10.5,26.9,10.5z"/>
	<path class="st0" d="M26.9,22.5h-7.7c0,0-0.1,0-0.1,0s-0.1,0-0.1,0s-0.1,0-0.1,0c-0.6,0.1-0.9,0.6-0.9,1.1s0.6,0.9,1.1,0.9h7.7
		c0.4,0,0.7-0.2,0.9-0.5c0.2-0.3,0.2-0.7,0-1C27.6,22.7,27.3,22.5,26.9,22.5z"/>
	<path class="st0" d="M26.9,30.3h-7.7c-0.1,0-0.1,0-0.2,0c0,0-0.1,0-0.1,0c-0.6,0.1-0.9,0.6-0.9,1.1s0.6,0.9,1.1,0.9h7.7
		c0.4,0,0.7-0.2,0.9-0.5c0.2-0.3,0.2-0.7,0-1C27.6,30.5,27.3,30.3,26.9,30.3z"/>
	<path class="st0" d="M26.9,26.5h-7.7c0,0-0.1,0-0.1,0s-0.1,0-0.1,0s-0.1,0-0.1,0c-0.6,0.1-0.9,0.6-0.9,1.1s0.6,0.9,1.1,0.9h7.7
		c0.4,0,0.7-0.2,0.9-0.5c0.2-0.3,0.2-0.7,0-1C27.6,26.7,27.3,26.5,26.9,26.5z"/>
</g>
</svg>
